# xmcd
#
# Track frame offsets:
#	150
#	11778
#	22971
#	36060
#	48417
#	62717
#	74486
#	87576
#	100402
#	112567
#	123509
#	134047
#	147637
#	162143
#	171328
#	181242
#	194271
#	205585
#	218582
#	228292
#	241341
#	252794
#	266551
#	277326
#	289488
#
# Disc length: 4061 seconds
#
# Revision: 0
# Processed by: cddbd v1.5.2PL0 Copyright (c) Steve Scherf et al.
# Submitted via: EZCDAudioConverter 1.3.4.1
#
DISCID=7a0fdb19
DTITLE=V/A - New Orleans Funk 2
DYEAR=1900
DGENRE=
TTITLE0=Cyril Neville - Gossip
TTITLE1=Eddie Bo - If It's Good To You (It's Good For You)
TTITLE2=Ray J - Right Place, Wrong Time
TTITLE3=The Meters - Chicken Strut
TTITLE4=Allen Toussaint - Tequila
TTITLE5=Prime Mates - Hot Tomales
TTITLE6=Betty Harris - Show It
TTITLE7=Lee Dorsey - Four Corners
TTITLE8=Bonne And Sheila - You Keep Me Hangin' On
TTITLE9=The Gaturs - Yeah You're Right, You Know You're Right
TTITLE10=Danny White - The Twitch
TTITLE11=Inell Young - What Do You See In Her
TTITLE12=Earl King - Street Parade
TTITLE13=Eddie Bo - The Rubber Band
TTITLE14=Benny Spellman - Fortune Teller
TTITLE15=Warren Lee - Mama Said We Can't Get Married
TTITLE16=Betty Harris - 12 Red Roses
TTITLE17=Joe Chopper - Soul Pusher
TTITLE18=Eddie Bo - Hey Bo
TTITLE19=Johnny Moore - Haven't I Been Good To You
TTITLE20=Jimmy Hicks - I'm Mr. Big Stuff
TTITLE21=Warren Lee - Funky Belly
TTITLE22=G. Davis And R. Tyler - Hold On, Help Is On The Way
TTITLE23=Art Neville - Bo Diddley
TTITLE24=Porgy Jones - The Dap
EXTD=
EXTT0=
EXTT1=
EXTT2=
EXTT3=
EXTT4=
EXTT5=
EXTT6=
EXTT7=
EXTT8=
EXTT9=
EXTT10=
EXTT11=
EXTT12=
EXTT13=
EXTT14=
EXTT15=
EXTT16=
EXTT17=
EXTT18=
EXTT19=
EXTT20=
EXTT21=
EXTT22=
EXTT23=
EXTT24=
PLAYORDER=
